<svg id="liferay-logo" xmlns="http://www.w3.org/2000/svg" viewBox="0 0 111 24">
    <g class="footer-logo">
        <path d="M59.4 3.7v16.7c0 .3 0 .5-.1.8l-.1.3h9.3v-1.7l-.3.1c-.6.1-.8.1-.9.1h-5.6v-7.6h5.5c.4 0 .7 0 1 .1l.4.1v-1.7l-.4.1c-.3.1-.6.1-1 .1h-5.5V3.9h5.7c.2 0 .5 0 .7.1l.4.1V2.5h-9.4l.1.4c.2.2.2.4.2.8zM71.6 3.6v16.7c0 .3 0 .5-.1.8l-.1.4h2.7l-.1-.4v-7.8l6.6 7.4c.2.3.4.5.5.7l.1.2h4.1v-.3c0-.4 0-.5.1-.6l2-5.4h7.2l2 5.4c.1.2.1.4.1.6v.3h2.9l-.3-.5c-.2-.3-.3-.5-.4-.6L92.6 3.1c0-.1-.1-.2-.1-.4v-.3h-2.1v.3c0 .3-.1.4-.1.5l-6.2 17.2c0 .1-.1.2-.2.4-.2-.1-.3-.3-.5-.4l-6.9-7.7c1.7-.2 3-.7 4-1.4 1.1-.9 1.6-2.1 1.6-3.7 0-1-.3-2-.9-2.8-.5-.8-1.2-1.3-2.1-1.7-.9-.4-2-.6-3.2-.6h-4.4l.1.4v.7zm19.3 1.9l3.2 8.4h-6.2l3-8.4zM74 3.9h1.3c1.3 0 2.3.2 3 .7.5.3.8.8 1.1 1.3.3.5.4 1.1.4 1.8 0 1.4-.6 2.4-1.8 3.1-.7.4-1.6.6-2.5.6H74V3.9zM48 21.2v.3h2.7l-.1-.4c-.1-.3-.1-.5-.1-.8v-7.8h4.7c.3 0 .6 0 .9.1l.4.1V11l-.5.1c-.3.1-.6.1-.8.1h-4.7V3.9h5.4c.3 0 .7 0 1 .1h.2V2.5H48v.3c.1.3.1.5.1.8v16.7c0 .3 0 .6-.1.9zM41.7 3.6v16.7c0 .3 0 .5-.1.8l-.1.4h2.7l-.1-.4c-.1-.2-.1-.4-.1-.8V3.6c0-.3 0-.6.1-.8l.1-.4h-2.7l.1.4c.1.3.1.6.1.8zM109.7 19.8c0-.3-.2-.5-.6-.5h-.6v1.6h.2v-.7h.3l.4.7h.3l-.5-.7c.3 0 .5-.1.5-.4zm-.7.3h-.2v-.5h.3c.2 0 .4 0 .4.2-.1.2-.3.3-.5.3zM97.2 3.6l5 9.4v7.3c0 .3 0 .5-.1.8l-.1.4h2.7l-.1-.4c-.1-.3-.1-.5-.1-.8V13l5.1-9.5c.1-.2.2-.4.4-.6l.4-.5h-1.9l-.1.2-.3.6-4.2 7.9-4.1-7.9c-.2-.4-.3-.6-.3-.7l-.1-.2h-2.9l.3.7c.1.1.3.3.4.6zM30.5 21.1l-.1.4h9.2v-1.7l-.4.1c-.2.1-.4.1-.7.1H33V3.7c0-.3 0-.5.1-.8l.1-.4h-2.7l.1.4c.1.3.1.6.1.8v16.7c-.1.2-.1.5-.2.7z"/>
        <path d="M109 18.8c-.8 0-1.4.6-1.4 1.4 0 .8.6 1.4 1.4 1.4.7 0 1.4-.6 1.4-1.4 0-.8-.6-1.4-1.4-1.4zm0 2.5c-.6 0-1.1-.5-1.1-1.2s.5-1.2 1.1-1.2c.6 0 1.1.5 1.1 1.2s-.4 1.2-1.1 1.2zM.7 24h22.6c.4 0 .7-.3.7-.7V.7c0-.4-.3-.7-.7-.7H.7C.3 0 0 .3 0 .7v22.6c0 .4.3.7.7.7zM17.4 7.4h4.1v4.1h-4.1V7.4zm0 5h4.1v4.1h-4.1v-4.1zm0 5h4.1v4.1h-4.1v-4.1zm-5-14.9h4.1v4.1h-4.1V2.5zm0 9.9h4.1v4.1h-4.1v-4.1zm0 5h4.1v4.1h-4.1v-4.1zm-5-14.9h4.1v4.1H7.4V2.5zm0 4.9h4.1v4.1H7.4V7.4zm0 10h4.1v4.1H7.4v-4.1zM2.5 2.5h4.1v4.1H2.5V2.5zm0 4.9h4.1v4.1H2.5V7.4zm0 5h4.1v4.1H2.5v-4.1z"/>
    </g>
</svg>