<svg id="wedeploy-logo" xmlns="http://www.w3.org/2000/svg" viewBox="0 0 151 24">
    <g class="footer-logo">
        <path d="M119.7 24h4.7l7.8-18.1h-4.6l-3.5 7.9-3.2-7.9h-4.6l5.6 13.1zM67.5 19.8c1.6 0 3-.4 4.1-1.1 1.2-.7 2-1.8 2.6-3.2l-3.8-.8c-.6 1-1.5 1.6-2.9 1.6-.7 0-1.4-.2-1.9-.7-.5-.5-.9-1.1-1.1-1.9h9.9v-1.1c0-2.2-.7-3.9-2-5.2-1.3-1.3-3-2-4.9-2-2 0-3.7.7-5.1 2-1.4 1.3-2.1 3.1-2.1 5.2s.7 3.8 2.1 5.2c1.5 1.3 3.2 2 5.1 2zM65.8 9.5c.5-.3 1.1-.5 1.8-.5.6 0 1.2.2 1.7.5.5.4.8.9 1 1.6h-5.6c.2-.6.6-1.2 1.1-1.6zM136.1 8.8h2.3V3.3h2.3V1.4h-6.9v1.9h2.3zM81.1 18.3c1.1 1 2.5 1.5 4.2 1.5 1.8 0 3.4-.7 4.7-2 1.3-1.3 1.9-3.1 1.9-5.2s-.6-3.8-1.9-5.2c-1.3-1.3-2.8-2-4.7-2-1.7 0-3.1.5-4.2 1.5v-1h-4.3V24h4.3v-5.7zm1-8.2c.7-.7 1.4-1 2.3-1 1 0 1.7.3 2.3 1 .6.7.9 1.5.9 2.5s-.3 1.9-.9 2.5c-.6.6-1.4 1-2.3 1-.9 0-1.7-.3-2.3-1s-1-1.5-1-2.5.3-1.8 1-2.5zM108.6 19.8c2.1 0 3.8-.7 5.3-2 1.4-1.3 2.2-3 2.2-5.2 0-2.1-.7-3.8-2.2-5.1-1.4-1.3-3.2-2-5.3-2-2.1 0-3.9.7-5.3 2s-2.2 3-2.2 5.1c0 2.1.7 3.8 2.2 5.2s3.2 2 5.3 2zm-2.3-9.7c.7-.7 1.4-1 2.3-1 .9 0 1.6.3 2.3 1 .7.7 1 1.5 1 2.5s-.3 1.9-1 2.5c-.6.7-1.4 1-2.3 1-.4 0-.9-.1-1.3-.2-.4-.2-.8-.4-1.1-.7-.7-.7-1-1.5-1-2.5.1-1.1.4-1.9 1.1-2.6zM9.9 19.4l3-11.1L16 19.4h4.7l5.2-18h-4.6l-3.2 11.3L15 1.4h-4.2L7.7 12.7 4.6 1.4H0l5.2 18zM143.9 5.2l1.6 3.6h1.1l1.5-3.6v3.6h2.3V1.4h-2.5l-1.9 4-1.8-4h-2.5v7.4h2.2zM94.3 0h4.3v19.4h-4.3zM27.5 18c1.4 1.3 3.1 2 5.1 2 1.6 0 3-.4 4.1-1.1 1.2-.7 2-1.8 2.6-3.2l-3.9-.7c-.6 1-1.5 1.6-2.9 1.6-.7 0-1.4-.2-1.9-.7-.5-.5-.9-1.1-1.1-1.9h9.9v-1.1c0-2.2-.7-3.9-2-5.2-1.3-1.3-3-2-4.9-2-2 0-3.7.7-5.1 2-1.4 1.3-2.1 3.1-2.1 5.2.1 2 .8 3.7 2.2 5.1zm3.3-8.3c.5-.4 1.1-.6 1.8-.6.6 0 1.2.2 1.7.5.5.4.8.9 1 1.6h-5.6c.2-.6.6-1.1 1.1-1.5zM56.1 16.9c1.8-1.7 2.7-3.8 2.7-6.5s-.9-4.9-2.7-6.5c-1.8-1.7-4.2-2.5-7.2-2.5h-7.1v18.1h7.1c3-.1 5.4-.9 7.2-2.6zm-9.9-1.3V5.2h2.5c1.7 0 3 .5 4.1 1.4 1 .9 1.5 2.2 1.5 3.8 0 1.6-.5 2.8-1.5 3.8-1 .9-2.4 1.4-4.1 1.4h-2.5z"/>
    </g>
</svg>